{
	"patcher" : 	{
		"fileversion" : 1,
		"appversion" : 		{
			"major" : 8,
			"minor" : 1,
			"revision" : 11,
			"architecture" : "x64",
			"modernui" : 1
		}
,
		"classnamespace" : "box",
		"rect" : [ 675.0, 79.0, 571.0, 612.0 ],
		"bglocked" : 0,
		"openinpresentation" : 0,
		"default_fontsize" : 12.0,
		"default_fontface" : 0,
		"default_fontname" : "Arial",
		"gridonopen" : 1,
		"gridsize" : [ 15.0, 15.0 ],
		"gridsnaponopen" : 1,
		"objectsnaponopen" : 1,
		"statusbarvisible" : 2,
		"toolbarvisible" : 1,
		"lefttoolbarpinned" : 0,
		"toptoolbarpinned" : 0,
		"righttoolbarpinned" : 0,
		"bottomtoolbarpinned" : 0,
		"toolbars_unpinned_last_save" : 0,
		"tallnewobj" : 0,
		"boxanimatetime" : 200,
		"enablehscroll" : 1,
		"enablevscroll" : 1,
		"devicewidth" : 0.0,
		"description" : "",
		"digest" : "",
		"tags" : "",
		"style" : "",
		"subpatcher_template" : "",
		"assistshowspatchername" : 0,
		"boxes" : [ 			{
				"box" : 				{
					"fontname" : "Arial",
					"fontsize" : 13.0,
					"id" : "obj-82",
					"maxclass" : "newobj",
					"numinlets" : 1,
					"numoutlets" : 1,
					"outlettype" : [ "" ],
					"patching_rect" : [ 1196.1666259765625, 684.66668701171875, 48.0, 23.0 ],
					"text" : "fontlist"
				}

			}
, 			{
				"box" : 				{
					"fontname" : "Arial",
					"fontsize" : 13.0,
					"id" : "obj-97",
					"maxclass" : "newobj",
					"numinlets" : 1,
					"numoutlets" : 1,
					"outlettype" : [ "" ],
					"patching_rect" : [ 1196.1666259765625, 748.0, 74.0, 23.0 ],
					"text" : "tosymbol"
				}

			}
, 			{
				"box" : 				{
					"fontname" : "Arial",
					"fontsize" : 13.0,
					"id" : "obj-87",
					"maxclass" : "newobj",
					"numinlets" : 1,
					"numoutlets" : 1,
					"outlettype" : [ "" ],
					"patching_rect" : [ 1196.1666259765625, 779.0, 85.0, 23.0 ],
					"text" : "prepend font"
				}

			}
, 			{
				"box" : 				{
					"fontface" : 0,
					"fontname" : "Arial",
					"fontsize" : 13.0,
					"id" : "obj-89",
					"items" : [ "Ableton Sans Bold", ",", "Ableton Sans Light", ",", "Ableton Sans Medium", ",", "Al Bayan Plain", ",", "Al Bayan Bold", ",", "Al Nile", ",", "Al Nile Bold", ",", "Al Tarikh", ",", "American Typewriter", ",", "American Typewriter Light", ",", "American Typewriter Semibold", ",", "American Typewriter Bold", ",", "American Typewriter Condensed", ",", "American Typewriter Condensed Light", ",", "American Typewriter Condensed Bold", ",", "Andale Mono", ",", "Apple Braille Outline 6 Dot", ",", "Apple Braille Outline 8 Dot", ",", "Apple Braille Pinpoint 6 Dot", ",", "Apple Braille Pinpoint 8 Dot", ",", "Apple Braille", ",", "Apple Chancery Chancery", ",", "Apple Color Emoji", ",", "Apple SD Gothic Neo", ",", "Apple SD Gothic Neo Thin", ",", "Apple SD Gothic Neo UltraLight", ",", "Apple SD Gothic Neo Light", ",", "Apple SD Gothic Neo Medium", ",", "Apple SD Gothic Neo SemiBold", ",", "Apple SD Gothic Neo Bold", ",", "Apple SD Gothic Neo ExtraBold", ",", "Apple SD Gothic Neo Heavy", ",", "Apple Symbols", ",", "AppleGothic", ",", "AppleMyungjo", ",", "Arial", ",", "Arial Italic", ",", "Arial Bold", ",", "Arial Bold Italic", ",", "Arial Black", ",", "Arial Hebrew", ",", "Arial Hebrew Light", ",", "Arial Hebrew Bold", ",", "Arial Hebrew Scholar", ",", "Arial Hebrew Scholar Light", ",", "Arial Hebrew Scholar Bold", ",", "Arial Narrow", ",", "Arial Narrow Italic", ",", "Arial Narrow Bold", ",", "Arial Narrow Bold Italic", ",", "Arial Rounded MT Bold", ",", "Arial Unicode MS", ",", "Athelas", ",", "Athelas Italic", ",", "Athelas Bold", ",", "Athelas Bold Italic", ",", "Avenir Book", ",", "Avenir Roman", ",", "Avenir Book Oblique", ",", "Avenir Oblique", ",", "Avenir Light", ",", "Avenir Light Oblique", ",", "Avenir Medium", ",", "Avenir Medium Oblique", ",", "Avenir Heavy", ",", "Avenir Heavy Oblique", ",", "Avenir Black", ",", "Avenir Black Oblique", ",", "Avenir Next", ",", "Avenir Next Italic", ",", "Avenir Next Ultra Light", ",", "Avenir Next Ultra Light Italic", ",", "Avenir Next Medium", ",", "Avenir Next Medium Italic", ",", "Avenir Next Demi Bold", ",", "Avenir Next Demi Bold Italic", ",", "Avenir Next Bold", ",", "Avenir Next Bold Italic", ",", "Avenir Next Heavy", ",", "Avenir Next Heavy Italic", ",", "Avenir Next Condensed", ",", "Avenir Next Condensed Italic", ",", "Avenir Next Condensed Ultra Light", ",", "Avenir Next Condensed Ultra Light Italic", ",", "Avenir Next Condensed Medium", ",", "Avenir Next Condensed Medium Italic", ",", "Avenir Next Condensed Demi Bold", ",", "Avenir Next Condensed Demi Bold Italic", ",", "Avenir Next Condensed Bold", ",", "Avenir Next Condensed Bold Italic", ",", "Avenir Next Condensed Heavy", ",", "Avenir Next Condensed Heavy Italic", ",", "Ayuthaya", ",", "Baghdad", ",", "Bangla MN", ",", "Bangla MN Bold", ",", "Bangla Sangam MN", ",", "Bangla Sangam MN Bold", ",", "Baskerville", ",", "Baskerville Italic", ",", "Baskerville SemiBold", ",", "Baskerville SemiBold Italic", ",", "Baskerville Bold", ",", "Baskerville Bold Italic", ",", "Beirut", ",", "Big Caslon Medium", ",", "Bodoni 72 Book", ",", "Bodoni 72 Book Italic", ",", "Bodoni 72 Bold", ",", "Bodoni 72 Oldstyle Book", ",", "Bodoni 72 Oldstyle Book Italic", ",", "Bodoni 72 Oldstyle Bold", ",", "Bodoni 72 Smallcaps Book", ",", "Bodoni Ornaments", ",", "Bradley Hand Bold", ",", "Brush Script MT Italic", ",", "Chalkboard", ",", "Chalkboard Bold", ",", "Chalkboard SE", ",", "Chalkboard SE Light", ",", "Chalkboard SE Bold", ",", "Chalkduster", ",", "Charter Roman", ",", "Charter Italic", ",", "Charter Bold", ",", "Charter Bold Italic", ",", "Charter Black", ",", "Charter Black Italic", ",", "Cochin", ",", "Cochin Italic", ",", "Cochin Bold", ",", "Cochin Bold Italic", ",", "Comic Sans MS", ",", "Comic Sans MS Bold", ",", "Copperplate", ",", "Copperplate Light", ",", "Copperplate Bold", ",", "Corsiva Hebrew", ",", "Corsiva Hebrew Bold", ",", "Courier", ",", "Courier Oblique", ",", "Courier Bold", ",", "Courier Bold Oblique", ",", "Courier New", ",", "Courier New Italic", ",", "Courier New Bold", ",", "Courier New Bold Italic", ",", "Damascus", ",", "Damascus Light", ",", "Damascus Medium", ",", "Damascus Semi Bold", ",", "Damascus Bold", ",", "DecoType Naskh", ",", "Devanagari MT", ",", "Devanagari MT Bold", ",", "Devanagari Sangam MN", ",", "Devanagari Sangam MN Bold", ",", "Didot", ",", "Didot Italic", ",", "Didot Bold", ",", "DIN Alternate Bold", ",", "DIN Condensed Bold", ",", "Diwan Kufi", ",", "Diwan Thuluth", ",", "Euphemia UCAS", ",", "Euphemia UCAS Italic", ",", "Euphemia UCAS Bold", ",", "Farah", ",", "Farisi", ",", "Futura Medium", ",", "Futura Medium Italic", ",", "Futura Bold", ",", "Futura Condensed Medium", ",", "Futura Condensed ExtraBold", ",", "Galvji", ",", "Galvji Oblique", ",", "Galvji Bold", ",", "Galvji Bold Oblique", ",", "GB18030 Bitmap", ",", "Geeza Pro", ",", "Geeza Pro Bold", ",", "Geneva", ",", "Georgia", ",", "Georgia Italic", ",", "Georgia Bold", ",", "Georgia Bold Italic", ",", "Gill Sans", ",", "Gill Sans Italic", ",", "Gill Sans Light", ",", "Gill Sans Light Italic", ",", "Gill Sans SemiBold", ",", "Gill Sans SemiBold Italic", ",", "Gill Sans Bold", ",", "Gill Sans Bold Italic", ",", "Gill Sans UltraBold", ",", "Gujarati MT", ",", "Gujarati MT Bold", ",", "Gujarati Sangam MN", ",", "Gujarati Sangam MN Bold", ",", "Gurmukhi MN", ",", "Gurmukhi MN Bold", ",", "Gurmukhi MT", ",", "Gurmukhi Sangam MN", ",", "Gurmukhi Sangam MN Bold", ",", "Heiti SC Light", ",", "Heiti SC Medium", ",", "Heiti TC Light", ",", "Heiti TC Medium", ",", "Helvetica", ",", "Helvetica Oblique", ",", "Helvetica Light", ",", "Helvetica Light Oblique", ",", "Helvetica Bold", ",", "Helvetica Bold Oblique", ",", "Helvetica Neue", ",", "Helvetica Neue Italic", ",", "Helvetica Neue UltraLight", ",", "Helvetica Neue UltraLight Italic", ",", "Helvetica Neue Thin", ",", "Helvetica Neue Thin Italic", ",", "Helvetica Neue Light", ",", "Helvetica Neue Light Italic", ",", "Helvetica Neue Medium", ",", "Helvetica Neue Medium Italic", ",", "Helvetica Neue Bold", ",", "Helvetica Neue Bold Italic", ",", "Helvetica Neue Condensed Bold", ",", "Helvetica Neue Condensed Black", ",", "Herculanum", ",", "Hiragino Kaku Gothic Pro W3", ",", "Hiragino Kaku Gothic Pro W6", ",", "Hiragino Kaku Gothic ProN W3", ",", "Hiragino Kaku Gothic ProN W6", ",", "Hiragino Kaku Gothic Std W8", ",", "Hiragino Kaku Gothic StdN W8", ",", "Hiragino Maru Gothic Pro W4", ",", "Hiragino Maru Gothic ProN W4", ",", "Hiragino Mincho Pro W3", ",", "Hiragino Mincho Pro W6", ",", "Hiragino Mincho ProN W3", ",", "Hiragino Mincho ProN W6", ",", "Hiragino Sans W0", ",", "Hiragino Sans W1", ",", "Hiragino Sans W2", ",", "Hiragino Sans W3", ",", "Hiragino Sans W4", ",", "Hiragino Sans W5", ",", "Hiragino Sans W6", ",", "Hiragino Sans W7", ",", "Hiragino Sans W8", ",", "Hiragino Sans W9", ",", "Hiragino Sans GB W3", ",", "Hiragino Sans GB W6", ",", "Hoefler Text", ",", "Hoefler Text Ornaments", ",", "Hoefler Text Italic", ",", "Hoefler Text Black", ",", "Hoefler Text Black Italic", ",", "Impact", ",", "InaiMathi", ",", "InaiMathi Bold", ",", "Iowan Old Style Roman", ",", "Iowan Old Style Titling", ",", "Iowan Old Style Italic", ",", "Iowan Old Style Bold", ",", "Iowan Old Style Bold Italic", ",", "Iowan Old Style Black", ",", "Iowan Old Style Black Italic", ",", "ITC Benguiat Bold", ",", "ITF Devanagari Book", ",", "ITF Devanagari Light", ",", "ITF Devanagari Medium", ",", "ITF Devanagari Demi", ",", "ITF Devanagari Bold", ",", "ITF Devanagari Marathi Book", ",", "ITF Devanagari Marathi Light", ",", "ITF Devanagari Marathi Medium", ",", "ITF Devanagari Marathi Demi", ",", "ITF Devanagari Marathi Bold", ",", "Kailasa", ",", "Kailasa Bold", ",", "Kannada MN", ",", "Kannada MN Bold", ",", "Kannada Sangam MN", ",", "Kannada Sangam MN Bold", ",", "Kefa", ",", "Kefa Bold", ",", "Khmer MN", ",", "Khmer MN Bold", ",", "Khmer Sangam MN", ",", "Kohinoor Bangla", ",", "Kohinoor Bangla Light", ",", "Kohinoor Bangla Medium", ",", "Kohinoor Bangla Semibold", ",", "Kohinoor Bangla Bold", ",", "Kohinoor Devanagari", ",", "Kohinoor Devanagari Light", ",", "Kohinoor Devanagari Medium", ",", "Kohinoor Devanagari Semibold", ",", "Kohinoor Devanagari Bold", ",", "Kohinoor Gujarati", ",", "Kohinoor Gujarati Light", ",", "Kohinoor Gujarati Medium", ",", "Kohinoor Gujarati Semibold", ",", "Kohinoor Gujarati Bold", ",", "Kohinoor Telugu", ",", "Kohinoor Telugu Light", ",", "Kohinoor Telugu Medium", ",", "Kohinoor Telugu Semibold", ",", "Kohinoor Telugu Bold", ",", "Kokonor", ",", "Krungthep", ",", "KufiStandardGK", ",", "Lao MN", ",", "Lao MN Bold", ",", "Lao Sangam MN", ",", "Lato", ",", "Lato Italic", ",", "Lato Hairline", ",", "Lato Hairline Italic", ",", "Lato Thin", ",", "Lato Thin Italic", ",", "Lato Light", ",", "Lato Light Italic", ",", "Lato Medium", ",", "Lato Medium Italic", ",", "Lato Semibold", ",", "Lato Semibold Italic", ",", "Lato Bold", ",", "Lato Bold Italic", ",", "Lato Heavy", ",", "Lato Heavy Italic", ",", "Lato Black", ",", "Lato Black Italic", ",", "Lucida Grande", ",", "Lucida Grande Bold", ",", "Luminari", ",", "Malayalam MN", ",", "Malayalam MN Bold", ",", "Malayalam Sangam MN", ",", "Malayalam Sangam MN Bold", ",", "Marion", ",", "Marion Italic", ",", "Marion Bold", ",", "Marker Felt Thin", ",", "Marker Felt Wide", ",", "Menlo", ",", "Menlo Italic", ",", "Menlo Bold", ",", "Menlo Bold Italic", ",", "Microsoft Sans Serif", ",", "Mishafi", ",", "Mishafi Gold", ",", "Monaco", ",", "Mshtakan", ",", "Mshtakan Oblique", ",", "Mshtakan Bold", ",", "Mshtakan BoldOblique", ",", "Mukta Mahee", ",", "Mukta Mahee ExtraLight", ",", "Mukta Mahee Light", ",", "Mukta Mahee Medium", ",", "Mukta Mahee SemiBold", ",", "Mukta Mahee Bold", ",", "Mukta Mahee ExtraBold", ",", "Muna", ",", "Muna Bold", ",", "Muna Black", ",", "Myanmar MN", ",", "Myanmar MN Bold", ",", "Myanmar Sangam MN", ",", "Myanmar Sangam MN Bold", ",", "Nadeem", ",", "New Peninim MT", ",", "New Peninim MT Inclined", ",", "New Peninim MT Bold", ",", "New Peninim MT Bold Inclined", ",", "Noteworthy Light", ",", "Noteworthy Bold", ",", "Noto Nastaliq Urdu", ",", "Noto Nastaliq Urdu Bold", ",", "Noto Sans Armenian", ",", "Noto Sans Armenian Thin", ",", "Noto Sans Armenian ExtraLight", ",", "Noto Sans Armenian Light", ",", "Noto Sans Armenian Medium", ",", "Noto Sans Armenian SemiBold", ",", "Noto Sans Armenian Bold", ",", "Noto Sans Armenian ExtraBold", ",", "Noto Sans Armenian Black", ",", "Noto Sans Avestan", ",", "Noto Sans Bamum", ",", "Noto Sans Batak", ",", "Noto Sans Brahmi", ",", "Noto Sans Buginese", ",", "Noto Sans Buhid", ",", "Noto Sans Carian", ",", "Noto Sans Chakma", ",", "Noto Sans Cham", ",", "Noto Sans Coptic", ",", "Noto Sans Cuneiform", ",", "Noto Sans Cypriot", ",", "Noto Sans Egyptian Hieroglyphs", ",", "Noto Sans Glagolitic", ",", "Noto Sans Gothic", ",", "Noto Sans Hanunoo", ",", "Noto Sans Imperial Aramaic", ",", "Noto Sans Inscriptional Pahlavi", ",", "Noto Sans Inscriptional Parthian", ",", "Noto Sans Javanese", ",", "Noto Sans Kaithi", ",", "Noto Sans Kannada", ",", "Noto Sans Kannada ExtraLight", ",", "Noto Sans Kannada Thin", ",", "Noto Sans Kannada Light", ",", "Noto Sans Kannada Medium", ",", "Noto Sans Kannada SemiBold", ",", "Noto Sans Kannada Bold", ",", "Noto Sans Kannada ExtraBold", ",", "Noto Sans Kannada Black", ",", "Noto Sans Kayah Li", ",", "Noto Sans Kharoshthi", ",", "Noto Sans Lepcha", ",", "Noto Sans Limbu", ",", "Noto Sans Linear B", ",", "Noto Sans Lisu", ",", "Noto Sans Lycian", ",", "Noto Sans Lydian", ",", "Noto Sans Mandaic", ",", "Noto Sans Meetei Mayek", ",", "Noto Sans Mongolian", ",", "Noto Sans Myanmar", ",", "Noto Sans Myanmar ExtraLight", ",", "Noto Sans Myanmar Thin", ",", "Noto Sans Myanmar Light", ",", "Noto Sans Myanmar Medium", ",", "Noto Sans Myanmar SemiBold", ",", "Noto Sans Myanmar Bold", ",", "Noto Sans Myanmar ExtraBold", ",", "Noto Sans Myanmar Black", ",", "Noto Sans New Tai Lue", ",", "Noto Sans NKo", ",", "Noto Sans Ogham", ",", "Noto Sans Ol Chiki", ",", "Noto Sans Old Italic", ",", "Noto Sans Old Persian", ",", "Noto Sans Old South Arabian", ",", "Noto Sans Old Turkic", ",", "Noto Sans Oriya", ",", "Noto Sans Oriya Bold", ",", "Noto Sans Osmanya", ",", "Noto Sans PhagsPa", ",", "Noto Sans Phoenician", ",", "Noto Sans Rejang", ",", "Noto Sans Runic", ",", "Noto Sans Samaritan", ",", "Noto Sans Saurashtra", ",", "Noto Sans Shavian", ",", "Noto Sans Sundanese", ",", "Noto Sans Syloti Nagri", ",", "Noto Sans Syriac", ",", "Noto Sans Tagalog", ",", "Noto Sans Tagbanwa", ",", "Noto Sans Tai Le", ",", "Noto Sans Tai Tham", ",", "Noto Sans Tai Viet", ",", "Noto Sans Thaana", ",", "Noto Sans Tifinagh", ",", "Noto Sans Ugaritic", ",", "Noto Sans Vai", ",", "Noto Sans Yi", ",", "Noto Sans Zawgyi", ",", "Noto Sans Zawgyi Thin", ",", "Noto Sans Zawgyi ExtraLight", ",", "Noto Sans Zawgyi Light", ",", "Noto Sans Zawgyi Medium", ",", "Noto Sans Zawgyi SemiBold", ",", "Noto Sans Zawgyi Bold", ",", "Noto Sans Zawgyi ExtraBold", ",", "Noto Sans Zawgyi Black", ",", "Noto Serif Balinese", ",", "Noto Serif Myanmar", ",", "Noto Serif Myanmar ExtraLight", ",", "Noto Serif Myanmar Thin", ",", "Noto Serif Myanmar Light", ",", "Noto Serif Myanmar Medium", ",", "Noto Serif Myanmar SemiBold", ",", "Noto Serif Myanmar Bold", ",", "Noto Serif Myanmar ExtraBold", ",", "Noto Serif Myanmar Black", ",", "Optima", ",", "Optima Italic", ",", "Optima Bold", ",", "Optima Bold Italic", ",", "Optima ExtraBlack", ",", "Oriya MN", ",", "Oriya MN Bold", ",", "Oriya Sangam MN", ",", "Oriya Sangam MN Bold", ",", "Palatino", ",", "Palatino Italic", ",", "Palatino Bold", ",", "Palatino Bold Italic", ",", "Papyrus", ",", "Papyrus Condensed", ",", "Phosphate Inline", ",", "Phosphate Solid", ",", "PingFang HK", ",", "PingFang HK Ultralight", ",", "PingFang HK Thin", ",", "PingFang HK Light", ",", "PingFang HK Medium", ",", "PingFang HK Semibold", ",", "PingFang SC", ",", "PingFang SC Ultralight", ",", "PingFang SC Thin", ",", "PingFang SC Light", ",", "PingFang SC Medium", ",", "PingFang SC Semibold", ",", "PingFang TC", ",", "PingFang TC Ultralight", ",", "PingFang TC Thin", ",", "PingFang TC Light", ",", "PingFang TC Medium", ",", "PingFang TC Semibold", ",", "Plantagenet Cherokee", ",", "PT Mono", ",", "PT Mono Bold", ",", "PT Sans", ",", "PT Sans Italic", ",", "PT Sans Bold", ",", "PT Sans Bold Italic", ",", "PT Sans Caption", ",", "PT Sans Caption Bold", ",", "PT Sans Narrow", ",", "PT Sans Narrow Bold", ",", "PT Serif", ",", "PT Serif Italic", ",", "PT Serif Bold", ",", "PT Serif Bold Italic", ",", "PT Serif Caption", ",", "PT Serif Caption Italic", ",", "Raanana", ",", "Raanana Bold", ",", "Rockwell", ",", "Rockwell Italic", ",", "Rockwell Bold", ",", "Rockwell Bold Italic", ",", "Sana", ",", "Sathu", ",", "Savoye LET Plain", ",", "Seravek", ",", "Seravek Italic", ",", "Seravek ExtraLight", ",", "Seravek ExtraLight Italic", ",", "Seravek Light", ",", "Seravek Light Italic", ",", "Seravek Medium", ",", "Seravek Medium Italic", ",", "Seravek Bold", ",", "Seravek Bold Italic", ",", "Shree Devanagari 714", ",", "Shree Devanagari 714 Italic", ",", "Shree Devanagari 714 Bold", ",", "Shree Devanagari 714 Bold Italic", ",", "SignPainter HouseScript", ",", "SignPainter HouseScript Semibold", ",", "Silom", ",", "Sinhala MN", ",", "Sinhala MN Bold", ",", "Sinhala Sangam MN", ",", "Sinhala Sangam MN Bold", ",", "Skia", ",", "Skia Light", ",", "Skia Bold", ",", "Skia Black", ",", "Skia Extended", ",", "Skia Light Extended", ",", "Skia Black Extended", ",", "Skia Condensed", ",", "Skia Light Condensed", ",", "Skia Black Condensed", ",", "Snell Roundhand", ",", "Snell Roundhand Bold", ",", "Snell Roundhand Black", ",", "Songti SC", ",", "Songti SC Light", ",", "Songti SC Bold", ",", "Songti SC Black", ",", "Songti TC", ",", "Songti TC Light", ",", "Songti TC Bold", ",", "STIXGeneral", ",", "STIXGeneral Italic", ",", "STIXGeneral Bold", ",", "STIXGeneral Bold Italic", ",", "STIXIntegralsD", ",", "STIXIntegralsD Bold", ",", "STIXIntegralsSm", ",", "STIXIntegralsSm Bold", ",", "STIXIntegralsUp", ",", "STIXIntegralsUp Bold", ",", "STIXIntegralsUpD", ",", "STIXIntegralsUpD Bold", ",", "STIXIntegralsUpSm", ",", "STIXIntegralsUpSm Bold", ",", "STIXNonUnicode", ",", "STIXNonUnicode Italic", ",", "STIXNonUnicode Bold", ",", "STIXNonUnicode Bold Italic", ",", "STIXSizeFiveSym", ",", "STIXSizeFourSym", ",", "STIXSizeFourSym Bold", ",", "STIXSizeOneSym", ",", "STIXSizeOneSym Bold", ",", "STIXSizeThreeSym", ",", "STIXSizeThreeSym Bold", ",", "STIXSizeTwoSym", ",", "STIXSizeTwoSym Bold", ",", "STIXVariants", ",", "STIXVariants Bold", ",", "STSong", ",", "Sukhumvit Set Text", ",", "Sukhumvit Set Light", ",", "Sukhumvit Set Medium", ",", "Sukhumvit Set Semi Bold", ",", "Sukhumvit Set Bold", ",", "Sukhumvit Set Thin", ",", "Superclarendon", ",", "Superclarendon Italic", ",", "Superclarendon Light", ",", "Superclarendon Light Italic", ",", "Superclarendon Bold", ",", "Superclarendon Bold Italic", ",", "Superclarendon Black", ",", "Superclarendon Black Italic", ",", "Symbol", ",", "Tahoma", ",", "Tahoma Bold", ",", "Tamil MN", ",", "Tamil MN Bold", ",", "Tamil Sangam MN", ",", "Tamil Sangam MN Bold", ",", "Telugu MN", ",", "Telugu MN Bold", ",", "Telugu Sangam MN", ",", "Telugu Sangam MN Bold", ",", "Thonburi", ",", "Thonburi Light", ",", "Thonburi Bold", ",", "Times", ",", "Times Italic", ",", "Times Bold", ",", "Times Bold Italic", ",", "Times New Roman", ",", "Times New Roman Italic", ",", "Times New Roman Bold", ",", "Times New Roman Bold Italic", ",", "Trattatello", ",", "Trebuchet MS", ",", "Trebuchet MS Italic", ",", "Trebuchet MS Bold", ",", "Trebuchet MS Bold Italic", ",", "Verdana", ",", "Verdana Italic", ",", "Verdana Bold", ",", "Verdana Bold Italic", ",", "Waseem", ",", "Waseem Light", ",", "Webdings", ",", "Wingdings", ",", "Wingdings 2", ",", "Wingdings 3", ",", "Zapf Dingbats", ",", "Zapfino" ],
					"maxclass" : "umenu",
					"numinlets" : 1,
					"numoutlets" : 3,
					"outlettype" : [ "int", "", "" ],
					"parameter_enable" : 0,
					"patching_rect" : [ 1196.1666259765625, 717.0, 139.0, 23.0 ]
				}

			}
, 			{
				"box" : 				{
					"id" : "obj-88",
					"maxclass" : "button",
					"numinlets" : 1,
					"numoutlets" : 1,
					"outlettype" : [ "bang" ],
					"parameter_enable" : 0,
					"patching_rect" : [ 710.0, 733.66668701171875, 24.0, 24.0 ]
				}

			}
, 			{
				"box" : 				{
					"id" : "obj-86",
					"maxclass" : "button",
					"numinlets" : 1,
					"numoutlets" : 1,
					"outlettype" : [ "bang" ],
					"parameter_enable" : 0,
					"patching_rect" : [ 68.0, 673.16668701171875, 24.0, 24.0 ]
				}

			}
, 			{
				"box" : 				{
					"fontname" : "Arial",
					"fontsize" : 13.0,
					"id" : "obj-23",
					"maxclass" : "message",
					"numinlets" : 2,
					"numoutlets" : 1,
					"outlettype" : [ "" ],
					"patching_rect" : [ 1100.000015258789062, 228.000030517578125, 85.0, 23.0 ],
					"text" : "gettexnames"
				}

			}
, 			{
				"box" : 				{
					"id" : "obj-67",
					"maxclass" : "message",
					"numinlets" : 2,
					"numoutlets" : 1,
					"outlettype" : [ "" ],
					"patching_rect" : [ 1121.000015258789062, 265.000030517578125, 129.0, 22.0 ],
					"text" : "read tabletexture1.dae"
				}

			}
, 			{
				"box" : 				{
					"id" : "obj-6",
					"maxclass" : "newobj",
					"numinlets" : 1,
					"numoutlets" : 2,
					"outlettype" : [ "jit_matrix", "" ],
					"patching_rect" : [ 1075.0, 302.000030517578125, 241.0, 22.0 ],
					"text" : "jit.gl.model myworld @file tabletexture1.dae"
				}

			}
, 			{
				"box" : 				{
					"id" : "obj-85",
					"maxclass" : "button",
					"numinlets" : 1,
					"numoutlets" : 1,
					"outlettype" : [ "bang" ],
					"parameter_enable" : 0,
					"patching_rect" : [ 808.6666259765625, 854.5, 24.0, 24.0 ]
				}

			}
, 			{
				"box" : 				{
					"id" : "obj-81",
					"maxclass" : "comment",
					"numinlets" : 1,
					"numoutlets" : 0,
					"patching_rect" : [ 876.6666259765625, 737.5, 115.0, 20.0 ],
					"text" : "Singleplayer display",
					"textcolor" : [ 0.0, 0.043137254901961, 1.0, 1.0 ]
				}

			}
, 			{
				"box" : 				{
					"id" : "obj-79",
					"maxclass" : "message",
					"numinlets" : 2,
					"numoutlets" : 1,
					"outlettype" : [ "" ],
					"patching_rect" : [ 923.1666259765625, 776.66668701171875, 97.0, 22.0 ],
					"text" : "position 46 29 -4"
				}

			}
, 			{
				"box" : 				{
					"id" : "obj-65",
					"maxclass" : "message",
					"numinlets" : 2,
					"numoutlets" : 1,
					"outlettype" : [ "" ],
					"patching_rect" : [ 722.6666259765625, 776.66668701171875, 93.0, 22.0 ],
					"text" : "position 46 29 8"
				}

			}
, 			{
				"box" : 				{
					"id" : "obj-51",
					"maxclass" : "message",
					"numinlets" : 2,
					"numoutlets" : 1,
					"outlettype" : [ "" ],
					"patching_rect" : [ 824.6666259765625, 776.66668701171875, 94.0, 22.0 ],
					"text" : "rotatexyz 0 90 0"
				}

			}
, 			{
				"box" : 				{
					"id" : "obj-71",
					"maxclass" : "button",
					"numinlets" : 1,
					"numoutlets" : 1,
					"outlettype" : [ "bang" ],
					"parameter_enable" : 0,
					"patching_rect" : [ 204.0, 669.16668701171875, 24.0, 24.0 ]
				}

			}
, 			{
				"box" : 				{
					"id" : "obj-52",
					"maxclass" : "newobj",
					"numinlets" : 1,
					"numoutlets" : 1,
					"outlettype" : [ "bang" ],
					"patching_rect" : [ 68.0, 644.0, 58.0, 22.0 ],
					"text" : "loadbang"
				}

			}
, 			{
				"box" : 				{
					"id" : "obj-17",
					"maxclass" : "comment",
					"numinlets" : 1,
					"numoutlets" : 0,
					"patching_rect" : [ 834.6666259765625, 854.5, 115.0, 20.0 ],
					"text" : "Multiplayer display",
					"textcolor" : [ 0.0, 0.043137254901961, 1.0, 1.0 ]
				}

			}
, 			{
				"box" : 				{
					"id" : "obj-83",
					"maxclass" : "comment",
					"numinlets" : 1,
					"numoutlets" : 0,
					"patching_rect" : [ 65.0, 615.0, 82.0, 20.0 ],
					"text" : "Singleplayer"
				}

			}
, 			{
				"box" : 				{
					"id" : "obj-80",
					"maxclass" : "message",
					"numinlets" : 2,
					"numoutlets" : 1,
					"outlettype" : [ "" ],
					"patching_rect" : [ 65.0, 711.0, 49.0, 22.0 ],
					"text" : "63 30 0"
				}

			}
, 			{
				"box" : 				{
					"id" : "obj-76",
					"maxclass" : "message",
					"numinlets" : 2,
					"numoutlets" : 1,
					"outlettype" : [ "" ],
					"patching_rect" : [ 121.0, 711.0, 53.0, 22.0 ],
					"text" : "-22 90 0"
				}

			}
, 			{
				"box" : 				{
					"id" : "obj-70",
					"maxclass" : "comment",
					"numinlets" : 1,
					"numoutlets" : 0,
					"patching_rect" : [ 199.0, 644.0, 73.0, 20.0 ],
					"text" : "Multiplayer"
				}

			}
, 			{
				"box" : 				{
					"id" : "obj-64",
					"maxclass" : "message",
					"numinlets" : 2,
					"numoutlets" : 1,
					"outlettype" : [ "" ],
					"patching_rect" : [ 253.0, 711.0, 46.0, 22.0 ],
					"text" : "-46 0 0"
				}

			}
, 			{
				"box" : 				{
					"id" : "obj-48",
					"maxclass" : "message",
					"numinlets" : 2,
					"numoutlets" : 1,
					"outlettype" : [ "" ],
					"patching_rect" : [ 191.5, 711.0, 49.0, 22.0 ],
					"text" : "0 38 40"
				}

			}
, 			{
				"box" : 				{
					"id" : "obj-61",
					"maxclass" : "message",
					"numinlets" : 2,
					"numoutlets" : 1,
					"outlettype" : [ "" ],
					"patching_rect" : [ 710.0, 898.16668701171875, 103.0, 22.0 ],
					"text" : "position -11 28 20"
				}

			}
, 			{
				"box" : 				{
					"fontname" : "Arial",
					"fontsize" : 11.595186999999999,
					"id" : "obj-55",
					"maxclass" : "newobj",
					"numinlets" : 1,
					"numoutlets" : 1,
					"outlettype" : [ "" ],
					"patching_rect" : [ 554.1666259765625, 790.16668701171875, 75.0, 21.0 ],
					"text" : "prepend text"
				}

			}
, 			{
				"box" : 				{
					"fontname" : "Arial",
					"fontsize" : 12.0,
					"id" : "obj-57",
					"maxclass" : "newobj",
					"numinlets" : 1,
					"numoutlets" : 1,
					"outlettype" : [ "" ],
					"patching_rect" : [ 554.1666259765625, 733.66668701171875, 91.0, 22.0 ],
					"text" : "prepend Score:"
				}

			}
, 			{
				"box" : 				{
					"fontname" : "Arial",
					"fontsize" : 12.0,
					"id" : "obj-59",
					"maxclass" : "newobj",
					"numinlets" : 1,
					"numoutlets" : 1,
					"outlettype" : [ "" ],
					"patching_rect" : [ 554.1666259765625, 764.66668701171875, 59.0, 22.0 ],
					"text" : "tosymbol"
				}

			}
, 			{
				"box" : 				{
					"fontname" : "Arial",
					"fontsize" : 13.0,
					"id" : "obj-60",
					"maxclass" : "newobj",
					"numinlets" : 1,
					"numoutlets" : 2,
					"outlettype" : [ "jit_matrix", "" ],
					"patching_rect" : [ 554.1666259765625, 929.16668701171875, 159.0, 23.0 ],
					"text" : "jit.gl.text3d @color 0 1 0 1"
				}

			}
, 			{
				"box" : 				{
					"id" : "obj-54",
					"maxclass" : "message",
					"numinlets" : 2,
					"numoutlets" : 1,
					"outlettype" : [ "" ],
					"patching_rect" : [ 820.0, 898.16668701171875, 98.0, 22.0 ],
					"text" : "rotatexyz -45 0 0"
				}

			}
, 			{
				"box" : 				{
					"id" : "obj-37",
					"maxclass" : "newobj",
					"numinlets" : 1,
					"numoutlets" : 1,
					"outlettype" : [ "bang" ],
					"patching_rect" : [ 814.6666259765625, 737.5, 58.0, 22.0 ],
					"text" : "loadbang"
				}

			}
, 			{
				"box" : 				{
					"id" : "obj-50",
					"maxclass" : "message",
					"numinlets" : 2,
					"numoutlets" : 1,
					"outlettype" : [ "" ],
					"patching_rect" : [ 920.0, 898.16668701171875, 103.0, 22.0 ],
					"text" : "position 6.7 28 20"
				}

			}
, 			{
				"box" : 				{
					"id" : "obj-47",
					"maxclass" : "comment",
					"numinlets" : 1,
					"numoutlets" : 0,
					"patching_rect" : [ 538.1666259765625, 642.5, 237.0, 20.0 ],
					"text" : "DISPLAY SCORING FOR EACH GOAL"
				}

			}
, 			{
				"box" : 				{
					"fontname" : "Arial",
					"fontsize" : 12.0,
					"id" : "obj-180",
					"maxclass" : "newobj",
					"numinlets" : 1,
					"numoutlets" : 1,
					"outlettype" : [ "" ],
					"patching_rect" : [ 808.6666259765625, 684.66668701171875, 72.0, 22.0 ],
					"text" : "loadmess 0"
				}

			}
, 			{
				"box" : 				{
					"fontname" : "Arial",
					"fontsize" : 11.595186999999999,
					"id" : "obj-181",
					"maxclass" : "newobj",
					"numinlets" : 1,
					"numoutlets" : 1,
					"outlettype" : [ "" ],
					"patching_rect" : [ 1089.1666259765625, 807.16668701171875, 75.0, 21.0 ],
					"text" : "prepend text"
				}

			}
, 			{
				"box" : 				{
					"fontname" : "Arial",
					"fontsize" : 12.0,
					"id" : "obj-183",
					"maxclass" : "newobj",
					"numinlets" : 1,
					"numoutlets" : 1,
					"outlettype" : [ "" ],
					"patching_rect" : [ 1089.1666259765625, 740.16668701171875, 91.0, 22.0 ],
					"text" : "prepend Score:"
				}

			}
, 			{
				"box" : 				{
					"fontname" : "Arial",
					"fontsize" : 12.0,
					"id" : "obj-184",
					"maxclass" : "newobj",
					"numinlets" : 1,
					"numoutlets" : 1,
					"outlettype" : [ "" ],
					"patching_rect" : [ 1089.1666259765625, 779.66668701171875, 59.0, 22.0 ],
					"text" : "tosymbol"
				}

			}
, 			{
				"box" : 				{
					"fontname" : "Arial",
					"fontsize" : 13.0,
					"id" : "obj-103",
					"maxclass" : "newobj",
					"numinlets" : 1,
					"numoutlets" : 2,
					"outlettype" : [ "jit_matrix", "" ],
					"patching_rect" : [ 1089.1666259765625, 918.66668701171875, 161.0, 23.0 ],
					"text" : "jit.gl.text3d @color 1 0 0 1"
				}

			}
, 			{
				"box" : 				{
					"id" : "obj-45",
					"maxclass" : "number",
					"numinlets" : 1,
					"numoutlets" : 2,
					"outlettype" : [ "", "bang" ],
					"parameter_enable" : 0,
					"patching_rect" : [ 1089.1666259765625, 700.16668701171875, 50.0, 22.0 ]
				}

			}
, 			{
				"box" : 				{
					"bgcolor" : [ 0.607843137254902, 0.090196078431373, 0.090196078431373, 1.0 ],
					"id" : "obj-46",
					"maxclass" : "newobj",
					"numinlets" : 0,
					"numoutlets" : 1,
					"outlettype" : [ "" ],
					"patching_rect" : [ 1089.1666259765625, 671.16668701171875, 52.0, 22.0 ],
					"text" : "r score2"
				}

			}
, 			{
				"box" : 				{
					"id" : "obj-43",
					"maxclass" : "comment",
					"numinlets" : 1,
					"numoutlets" : 0,
					"patching_rect" : [ 65.0, 591.0, 150.0, 20.0 ],
					"text" : "CAMERA POSITIONS",
					"textcolor" : [ 0.0, 0.164705882352941, 1.0, 1.0 ]
				}

			}
, 			{
				"box" : 				{
					"id" : "obj-42",
					"linecount" : 2,
					"maxclass" : "comment",
					"numinlets" : 1,
					"numoutlets" : 0,
					"patching_rect" : [ 699.6666259765625, 476.666656494140625, 250.0, 33.0 ],
					"text" : "^changed from \"madeItSpace 4\" to \"madeItSpace 2\" to create two goalies",
					"textcolor" : [ 0.050980392156863, 0.0, 1.0, 1.0 ]
				}

			}
, 			{
				"box" : 				{
					"id" : "obj-35",
					"linecount" : 3,
					"maxclass" : "comment",
					"numinlets" : 1,
					"numoutlets" : 0,
					"patching_rect" : [ 670.0, 541.0, 279.6666259765625, 47.0 ],
					"text" : "This example does NOT demonstrate how to display the score to the user!\nIt just displays the score here, for you, the creator."
				}

			}
, 			{
				"box" : 				{
					"fontface" : 1,
					"id" : "obj-31",
					"linecount" : 7,
					"maxclass" : "comment",
					"numinlets" : 1,
					"numoutlets" : 0,
					"patching_rect" : [ 595.6666259765625, 336.833343505859375, 225.0, 100.0 ],
					"text" : "Check the MADEITSPACE and the BOID patchers in the project window for one example of adding points when passing certain areas/objects\n\nYou should also have a look at the changes to the collisionparser"
				}

			}
, 			{
				"box" : 				{
					"id" : "obj-16",
					"maxclass" : "number",
					"numinlets" : 1,
					"numoutlets" : 2,
					"outlettype" : [ "", "bang" ],
					"parameter_enable" : 0,
					"patching_rect" : [ 554.1666259765625, 698.16668701171875, 50.0, 22.0 ]
				}

			}
, 			{
				"box" : 				{
					"bgcolor" : [ 0.090196078431373, 0.607843137254902, 0.447058823529412, 1.0 ],
					"id" : "obj-10",
					"maxclass" : "newobj",
					"numinlets" : 0,
					"numoutlets" : 1,
					"outlettype" : [ "" ],
					"patching_rect" : [ 554.1666259765625, 669.16668701171875, 52.0, 22.0 ],
					"text" : "r score1"
				}

			}
, 			{
				"box" : 				{
					"bgcolor" : [ 0.772549019607843, 0.490196078431373, 0.090196078431373, 1.0 ],
					"id" : "obj-1",
					"maxclass" : "newobj",
					"numinlets" : 1,
					"numoutlets" : 0,
					"patching_rect" : [ 695.1666259765625, 448.333343505859375, 122.0, 22.0 ],
					"text" : "poly~ madeItSpace 2"
				}

			}
, 			{
				"box" : 				{
					"id" : "obj-84",
					"linecount" : 2,
					"maxclass" : "comment",
					"numinlets" : 1,
					"numoutlets" : 0,
					"patching_rect" : [ 491.1666259765625, 291.000030517578125, 273.0, 33.0 ],
					"text" : "One method to add 1 (and ONLY 1) to the score on collision with each one of a set of ghosts!"
				}

			}
, 			{
				"box" : 				{
					"fontface" : 0,
					"id" : "obj-27",
					"linecount" : 8,
					"maxclass" : "comment",
					"numinlets" : 1,
					"numoutlets" : 0,
					"patching_rect" : [ 900.1666259765625, 360.666656494140625, 229.0, 114.0 ],
					"text" : "Our collision-detection techniques are  customized to work with poly~ \n\nTHEREFORE if I only want one of this kind of object to be involved in collisions, I still may need to make that object using poly, because our collision-detection coding is based on poly~ techniques"
				}

			}
, 			{
				"box" : 				{
					"id" : "obj-75",
					"maxclass" : "message",
					"numinlets" : 2,
					"numoutlets" : 1,
					"outlettype" : [ "" ],
					"patching_rect" : [ 824.1666259765625, 360.666656494140625, 54.0, 22.0 ],
					"text" : "open $1"
				}

			}
, 			{
				"box" : 				{
					"id" : "obj-72",
					"maxclass" : "number",
					"numinlets" : 1,
					"numoutlets" : 2,
					"outlettype" : [ "", "bang" ],
					"parameter_enable" : 0,
					"patching_rect" : [ 824.1666259765625, 328.666656494140625, 50.0, 22.0 ]
				}

			}
, 			{
				"box" : 				{
					"bgcolor" : [ 0.772549019607843, 0.490196078431373, 0.090196078431373, 1.0 ],
					"id" : "obj-56",
					"maxclass" : "newobj",
					"numinlets" : 1,
					"numoutlets" : 0,
					"patching_rect" : [ 824.1666259765625, 406.000030517578125, 74.0, 22.0 ],
					"text" : "poly~ boid 1"
				}

			}
, 			{
				"box" : 				{
					"id" : "obj-41",
					"maxclass" : "comment",
					"numinlets" : 1,
					"numoutlets" : 0,
					"patching_rect" : [ 136.25, 135.0, 95.0, 20.0 ],
					"text" : "start score at 0"
				}

			}
, 			{
				"box" : 				{
					"bgcolor" : [ 0.090196078431373, 0.607843137254902, 0.447058823529412, 1.0 ],
					"id" : "obj-25",
					"maxclass" : "newobj",
					"numinlets" : 1,
					"numoutlets" : 0,
					"patching_rect" : [ 138.25, 112.0, 64.0, 22.0 ],
					"text" : "s thescore"
				}

			}
, 			{
				"box" : 				{
					"id" : "obj-21",
					"maxclass" : "message",
					"numinlets" : 2,
					"numoutlets" : 1,
					"outlettype" : [ "" ],
					"patching_rect" : [ 138.25, 83.5, 29.5, 22.0 ],
					"text" : "0"
				}

			}
, 			{
				"box" : 				{
					"id" : "obj-78",
					"maxclass" : "comment",
					"numinlets" : 1,
					"numoutlets" : 0,
					"patching_rect" : [ 386.499969000000021, 15.5, 131.5, 20.0 ],
					"text" : "Hide Ghosts/Physics"
				}

			}
, 			{
				"box" : 				{
					"id" : "obj-77",
					"maxclass" : "comment",
					"numinlets" : 1,
					"numoutlets" : 0,
					"patching_rect" : [ 398.833344000000011, 46.5, 131.5, 20.0 ],
					"text" : "Show Ghosts/Physics"
				}

			}
, 			{
				"box" : 				{
					"id" : "obj-24",
					"maxclass" : "message",
					"numinlets" : 2,
					"numoutlets" : 1,
					"outlettype" : [ "" ],
					"patching_rect" : [ 368.333344000000011, 45.5, 29.5, 22.0 ],
					"text" : "1"
				}

			}
, 			{
				"box" : 				{
					"id" : "obj-73",
					"maxclass" : "message",
					"numinlets" : 2,
					"numoutlets" : 1,
					"outlettype" : [ "" ],
					"patching_rect" : [ 355.999969000000021, 14.5, 29.5, 22.0 ],
					"text" : "0"
				}

			}
, 			{
				"box" : 				{
					"id" : "obj-68",
					"maxclass" : "newobj",
					"numinlets" : 1,
					"numoutlets" : 1,
					"outlettype" : [ "" ],
					"patching_rect" : [ 261.0, 122.0, 87.0, 22.0 ],
					"text" : "jit.gl.physdraw"
				}

			}
, 			{
				"box" : 				{
					"id" : "obj-74",
					"maxclass" : "message",
					"numinlets" : 2,
					"numoutlets" : 1,
					"outlettype" : [ "" ],
					"patching_rect" : [ 205.0, 226.0, 143.0, 22.0 ],
					"text" : "worldbox_scale $1 $1 $1"
				}

			}
, 			{
				"box" : 				{
					"bgcolor" : [ 0.011765, 0.396078, 0.752941, 1.0 ],
					"id" : "obj-66",
					"maxclass" : "newobj",
					"numinlets" : 0,
					"numoutlets" : 1,
					"outlettype" : [ "" ],
					"patching_rect" : [ 205.0, 193.0, 68.0, 22.0 ],
					"text" : "r worldsize"
				}

			}
, 			{
				"box" : 				{
					"id" : "obj-63",
					"maxclass" : "newobj",
					"numinlets" : 1,
					"numoutlets" : 1,
					"outlettype" : [ "" ],
					"patching_rect" : [ 72.75, 184.5, 123.0, 22.0 ],
					"text" : "loadmess worldbox 1"
				}

			}
, 			{
				"box" : 				{
					"fontname" : "Arial",
					"fontsize" : 13.0,
					"id" : "obj-49",
					"maxclass" : "newobj",
					"numinlets" : 1,
					"numoutlets" : 1,
					"outlettype" : [ "" ],
					"patching_rect" : [ 72.75, 235.833327999999995, 117.0, 23.0 ],
					"text" : "prepend sendphys"
				}

			}
, 			{
				"box" : 				{
					"fontface" : 0,
					"fontsize" : 16.0,
					"id" : "obj-99",
					"maxclass" : "comment",
					"numinlets" : 1,
					"numoutlets" : 0,
					"patching_rect" : [ 648.166625999999951, 2.5, 93.0, 24.0 ],
					"text" : "SKYBOX"
				}

			}
, 			{
				"box" : 				{
					"fontface" : 0,
					"fontsize" : 16.0,
					"id" : "obj-100",
					"maxclass" : "comment",
					"numinlets" : 1,
					"numoutlets" : 0,
					"patching_rect" : [ 6.0, 7.5, 220.0, 24.0 ],
					"text" : "WORLD & RENDERNAME"
				}

			}
, 			{
				"box" : 				{
					"fontface" : 0,
					"fontsize" : 16.0,
					"id" : "obj-114",
					"maxclass" : "comment",
					"numinlets" : 1,
					"numoutlets" : 0,
					"patching_rect" : [ 138.0, 293.000030999999979, 81.0, 24.0 ],
					"text" : "CAMERA"
				}

			}
, 			{
				"box" : 				{
					"id" : "obj-62",
					"maxclass" : "newobj",
					"numinlets" : 0,
					"numoutlets" : 1,
					"outlettype" : [ "" ],
					"patching_rect" : [ 19.5, 270.833344000000011, 44.0, 22.0 ],
					"text" : "r draw"
				}

			}
, 			{
				"box" : 				{
					"id" : "obj-39",
					"maxclass" : "newobj",
					"numinlets" : 1,
					"numoutlets" : 1,
					"outlettype" : [ "" ],
					"patching_rect" : [ 19.5, 302.833344000000011, 75.0, 22.0 ],
					"text" : "t getposition"
				}

			}
, 			{
				"box" : 				{
					"id" : "obj-108",
					"maxclass" : "newobj",
					"numinlets" : 1,
					"numoutlets" : 1,
					"outlettype" : [ "" ],
					"patcher" : 					{
						"fileversion" : 1,
						"appversion" : 						{
							"major" : 8,
							"minor" : 1,
							"revision" : 11,
							"architecture" : "x64",
							"modernui" : 1
						}
,
						"classnamespace" : "box",
						"rect" : [ 141.0, 79.0, 1105.0, 899.0 ],
						"bglocked" : 0,
						"openinpresentation" : 0,
						"default_fontsize" : 12.0,
						"default_fontface" : 0,
						"default_fontname" : "Arial",
						"gridonopen" : 1,
						"gridsize" : [ 15.0, 15.0 ],
						"gridsnaponopen" : 1,
						"objectsnaponopen" : 1,
						"statusbarvisible" : 2,
						"toolbarvisible" : 1,
						"lefttoolbarpinned" : 0,
						"toptoolbarpinned" : 0,
						"righttoolbarpinned" : 0,
						"bottomtoolbarpinned" : 0,
						"toolbars_unpinned_last_save" : 0,
						"tallnewobj" : 0,
						"boxanimatetime" : 200,
						"enablehscroll" : 1,
						"enablevscroll" : 1,
						"devicewidth" : 0.0,
						"description" : "",
						"digest" : "",
						"tags" : "",
						"style" : "",
						"subpatcher_template" : "",
						"assistshowspatchername" : 0,
						"boxes" : [ 							{
								"box" : 								{
									"id" : "obj-10",
									"maxclass" : "comment",
									"numinlets" : 1,
									"numoutlets" : 0,
									"patching_rect" : [ 84.0, 474.333252000000016, 38.0, 20.0 ],
									"text" : "outlet"
								}

							}
, 							{
								"box" : 								{
									"id" : "obj-7",
									"linecount" : 2,
									"maxclass" : "comment",
									"numinlets" : 1,
									"numoutlets" : 0,
									"patching_rect" : [ 151.0, 397.0, 207.0, 33.0 ],
									"text" : "Creates a new position for the camera or object, and sends it there!"
								}

							}
, 							{
								"box" : 								{
									"id" : "obj-3",
									"linecount" : 3,
									"maxclass" : "comment",
									"numinlets" : 1,
									"numoutlets" : 0,
									"patching_rect" : [ 157.333281999999997, 307.666564999999991, 264.0, 47.0 ],
									"text" : "Multiplies the position by 95% (which reduces number), and reverses it using the negative number sign"
								}

							}
, 							{
								"box" : 								{
									"id" : "obj-6",
									"linecount" : 2,
									"maxclass" : "comment",
									"numinlets" : 1,
									"numoutlets" : 0,
									"patching_rect" : [ 189.333344000000011, 141.333251999999987, 154.0, 33.0 ],
									"text" : "Comparing object position to size of world!"
								}

							}
, 							{
								"box" : 								{
									"id" : "obj-4",
									"linecount" : 5,
									"maxclass" : "comment",
									"numinlets" : 1,
									"numoutlets" : 0,
									"patching_rect" : [ 371.833281999999997, 172.999939000000012, 143.0, 74.0 ],
									"text" : "Get the size of the world\n\ns and r must use exact same spelling AND capitalization"
								}

							}
, 							{
								"box" : 								{
									"id" : "obj-2",
									"maxclass" : "comment",
									"numinlets" : 1,
									"numoutlets" : 0,
									"patching_rect" : [ 135.0, 106.5, 192.5, 20.0 ],
									"text" : "Catches output of x y z position"
								}

							}
, 							{
								"box" : 								{
									"id" : "obj-98",
									"maxclass" : "newobj",
									"numinlets" : 1,
									"numoutlets" : 1,
									"outlettype" : [ "" ],
									"patching_rect" : [ 50.0, 387.333252000000016, 99.0, 22.0 ],
									"text" : "prepend position"
								}

							}
, 							{
								"box" : 								{
									"id" : "obj-81",
									"maxclass" : "message",
									"numinlets" : 2,
									"numoutlets" : 1,
									"outlettype" : [ "" ],
									"patching_rect" : [ 50.0, 316.666564999999991, 99.0, 22.0 ],
									"text" : "-0.95 -0.95 -0.95"
								}

							}
, 							{
								"box" : 								{
									"id" : "obj-77",
									"maxclass" : "newobj",
									"numinlets" : 2,
									"numoutlets" : 1,
									"outlettype" : [ "" ],
									"patching_rect" : [ 50.0, 356.666564999999991, 415.333344000000011, 22.0 ],
									"text" : "vexpr $f1 * $f2"
								}

							}
, 							{
								"box" : 								{
									"id" : "obj-37",
									"maxclass" : "newobj",
									"numinlets" : 2,
									"numoutlets" : 2,
									"outlettype" : [ "bang", "" ],
									"patching_rect" : [ 50.0, 284.666626000000008, 36.0, 22.0 ],
									"text" : "sel 1"
								}

							}
, 							{
								"box" : 								{
									"id" : "obj-17",
									"maxclass" : "newobj",
									"numinlets" : 4,
									"numoutlets" : 1,
									"outlettype" : [ "" ],
									"patching_rect" : [ 50.0, 253.166564999999991, 288.0, 22.0 ],
									"text" : "if ($f1 >= $f4 || $f2 >= $f4 || $f3 >= $f4) then 1 else 0"
								}

							}
, 							{
								"box" : 								{
									"format" : 6,
									"id" : "obj-93",
									"maxclass" : "flonum",
									"numinlets" : 1,
									"numoutlets" : 2,
									"outlettype" : [ "", "bang" ],
									"parameter_enable" : 0,
									"patching_rect" : [ 157.333281999999997, 208.666626000000008, 105.0, 22.0 ]
								}

							}
, 							{
								"box" : 								{
									"format" : 6,
									"id" : "obj-91",
									"maxclass" : "flonum",
									"numinlets" : 1,
									"numoutlets" : 2,
									"outlettype" : [ "", "bang" ],
									"parameter_enable" : 0,
									"patching_rect" : [ 103.333343999999997, 208.666626000000008, 50.0, 22.0 ]
								}

							}
, 							{
								"box" : 								{
									"format" : 6,
									"id" : "obj-89",
									"maxclass" : "flonum",
									"numinlets" : 1,
									"numoutlets" : 2,
									"outlettype" : [ "", "bang" ],
									"parameter_enable" : 0,
									"patching_rect" : [ 50.0, 208.666626000000008, 50.0, 22.0 ]
								}

							}
, 							{
								"box" : 								{
									"format" : 6,
									"id" : "obj-87",
									"maxclass" : "flonum",
									"numinlets" : 1,
									"numoutlets" : 2,
									"outlettype" : [ "", "bang" ],
									"parameter_enable" : 0,
									"patching_rect" : [ 301.833281999999997, 208.666626000000008, 50.0, 22.0 ]
								}

							}
, 							{
								"box" : 								{
									"id" : "obj-85",
									"maxclass" : "newobj",
									"numinlets" : 1,
									"numoutlets" : 1,
									"outlettype" : [ "float" ],
									"patching_rect" : [ 144.333344000000011, 176.333251999999987, 43.0, 22.0 ],
									"text" : "abs 0."
								}

							}
, 							{
								"box" : 								{
									"id" : "obj-84",
									"maxclass" : "newobj",
									"numinlets" : 1,
									"numoutlets" : 1,
									"outlettype" : [ "float" ],
									"patching_rect" : [ 96.0, 176.333251999999987, 43.0, 22.0 ],
									"text" : "abs 0."
								}

							}
, 							{
								"box" : 								{
									"id" : "obj-83",
									"maxclass" : "newobj",
									"numinlets" : 1,
									"numoutlets" : 1,
									"outlettype" : [ "float" ],
									"patching_rect" : [ 50.0, 176.333251999999987, 43.0, 22.0 ],
									"text" : "abs 0."
								}

							}
, 							{
								"box" : 								{
									"id" : "obj-75",
									"maxclass" : "newobj",
									"numinlets" : 0,
									"numoutlets" : 1,
									"outlettype" : [ "" ],
									"patching_rect" : [ 301.833281999999997, 172.999939000000012, 68.0, 22.0 ],
									"text" : "r worldsize"
								}

							}
, 							{
								"box" : 								{
									"id" : "obj-67",
									"maxclass" : "newobj",
									"numinlets" : 1,
									"numoutlets" : 3,
									"outlettype" : [ "float", "float", "float" ],
									"patching_rect" : [ 50.0, 135.333251999999987, 89.0, 22.0 ],
									"text" : "unpack 0. 0. 0."
								}

							}
, 							{
								"box" : 								{
									"id" : "obj-23",
									"maxclass" : "newobj",
									"numinlets" : 2,
									"numoutlets" : 2,
									"outlettype" : [ "", "" ],
									"patching_rect" : [ 50.0, 100.0, 83.0, 22.0 ],
									"text" : "route position"
								}

							}
, 							{
								"box" : 								{
									"comment" : "",
									"id" : "obj-105",
									"index" : 1,
									"maxclass" : "inlet",
									"numinlets" : 0,
									"numoutlets" : 1,
									"outlettype" : [ "" ],
									"patching_rect" : [ 50.0, 40.0, 30.0, 30.0 ]
								}

							}
, 							{
								"box" : 								{
									"comment" : "",
									"id" : "obj-106",
									"index" : 1,
									"maxclass" : "outlet",
									"numinlets" : 1,
									"numoutlets" : 0,
									"patching_rect" : [ 50.0, 469.333252000000016, 30.0, 30.0 ]
								}

							}
 ],
						"lines" : [ 							{
								"patchline" : 								{
									"destination" : [ "obj-23", 0 ],
									"source" : [ "obj-105", 0 ]
								}

							}
, 							{
								"patchline" : 								{
									"destination" : [ "obj-37", 0 ],
									"source" : [ "obj-17", 0 ]
								}

							}
, 							{
								"patchline" : 								{
									"destination" : [ "obj-67", 0 ],
									"order" : 1,
									"source" : [ "obj-23", 0 ]
								}

							}
, 							{
								"patchline" : 								{
									"destination" : [ "obj-77", 1 ],
									"midpoints" : [ 59.5, 129.333251999999987, 455.833344000000011, 129.333251999999987 ],
									"order" : 0,
									"source" : [ "obj-23", 0 ]
								}

							}
, 							{
								"patchline" : 								{
									"destination" : [ "obj-81", 0 ],
									"source" : [ "obj-37", 0 ]
								}

							}
, 							{
								"patchline" : 								{
									"destination" : [ "obj-83", 0 ],
									"source" : [ "obj-67", 0 ]
								}

							}
, 							{
								"patchline" : 								{
									"destination" : [ "obj-84", 0 ],
									"source" : [ "obj-67", 1 ]
								}

							}
, 							{
								"patchline" : 								{
									"destination" : [ "obj-85", 0 ],
									"source" : [ "obj-67", 2 ]
								}

							}
, 							{
								"patchline" : 								{
									"destination" : [ "obj-87", 0 ],
									"source" : [ "obj-75", 0 ]
								}

							}
, 							{
								"patchline" : 								{
									"destination" : [ "obj-98", 0 ],
									"source" : [ "obj-77", 0 ]
								}

							}
, 							{
								"patchline" : 								{
									"destination" : [ "obj-77", 0 ],
									"source" : [ "obj-81", 0 ]
								}

							}
, 							{
								"patchline" : 								{
									"destination" : [ "obj-89", 0 ],
									"source" : [ "obj-83", 0 ]
								}

							}
, 							{
								"patchline" : 								{
									"destination" : [ "obj-91", 0 ],
									"source" : [ "obj-84", 0 ]
								}

							}
, 							{
								"patchline" : 								{
									"destination" : [ "obj-93", 0 ],
									"source" : [ "obj-85", 0 ]
								}

							}
, 							{
								"patchline" : 								{
									"destination" : [ "obj-17", 3 ],
									"source" : [ "obj-87", 0 ]
								}

							}
, 							{
								"patchline" : 								{
									"destination" : [ "obj-17", 0 ],
									"source" : [ "obj-89", 0 ]
								}

							}
, 							{
								"patchline" : 								{
									"destination" : [ "obj-17", 1 ],
									"source" : [ "obj-91", 0 ]
								}

							}
, 							{
								"patchline" : 								{
									"destination" : [ "obj-17", 2 ],
									"source" : [ "obj-93", 0 ]
								}

							}
, 							{
								"patchline" : 								{
									"destination" : [ "obj-106", 0 ],
									"source" : [ "obj-98", 0 ]
								}

							}
 ]
					}
,
					"patching_rect" : [ 114.0, 526.833374000000049, 60.0, 22.0 ],
					"saved_object_attributes" : 					{
						"description" : "",
						"digest" : "",
						"globalpatchername" : "",
						"tags" : ""
					}
,
					"text" : "p bounds"
				}

			}
, 			{
				"box" : 				{
					"id" : "obj-13",
					"maxclass" : "newobj",
					"numinlets" : 1,
					"numoutlets" : 0,
					"patching_rect" : [ 61.25, 144.0, 46.0, 22.0 ],
					"text" : "s draw"
				}

			}
, 			{
				"box" : 				{
					"bgcolor" : [ 0.011765, 0.396078, 0.752941, 1.0 ],
					"id" : "obj-58",
					"maxclass" : "newobj",
					"numinlets" : 0,
					"numoutlets" : 1,
					"outlettype" : [ "" ],
					"patching_rect" : [ 231.0, 357.333344000000011, 68.0, 22.0 ],
					"text" : "r worldsize"
				}

			}
, 			{
				"box" : 				{
					"id" : "obj-40",
					"maxclass" : "newobj",
					"numinlets" : 2,
					"numoutlets" : 1,
					"outlettype" : [ "float" ],
					"patching_rect" : [ 231.0, 389.833344000000011, 29.5, 22.0 ],
					"text" : "* 4."
				}

			}
, 			{
				"box" : 				{
					"id" : "obj-38",
					"maxclass" : "message",
					"numinlets" : 2,
					"numoutlets" : 1,
					"outlettype" : [ "" ],
					"patching_rect" : [ 777.166625999999951, 152.0, 55.0, 22.0 ],
					"text" : "scale $1"
				}

			}
, 			{
				"box" : 				{
					"format" : 6,
					"id" : "obj-36",
					"maxclass" : "flonum",
					"numinlets" : 1,
					"numoutlets" : 2,
					"outlettype" : [ "", "bang" ],
					"parameter_enable" : 0,
					"patching_rect" : [ 777.166625999999951, 122.0, 50.0, 22.0 ]
				}

			}
, 			{
				"box" : 				{
					"bgcolor" : [ 0.011765, 0.396078, 0.752941, 1.0 ],
					"id" : "obj-34",
					"maxclass" : "newobj",
					"numinlets" : 0,
					"numoutlets" : 1,
					"outlettype" : [ "" ],
					"patching_rect" : [ 777.166625999999951, 94.5, 68.0, 22.0 ],
					"text" : "r worldsize"
				}

			}
, 			{
				"box" : 				{
					"id" : "obj-33",
					"maxclass" : "newobj",
					"numinlets" : 1,
					"numoutlets" : 1,
					"outlettype" : [ "bang" ],
					"patching_rect" : [ 836.166625999999951, 7.5, 60.0, 22.0 ],
					"text" : "loadbang"
				}

			}
, 			{
				"box" : 				{
					"id" : "obj-32",
					"linecount" : 3,
					"maxclass" : "comment",
					"numinlets" : 1,
					"numoutlets" : 0,
					"patching_rect" : [ 973.166625999999951, 52.5, 80.0, 47.0 ],
					"text" : "SET THE \nSIZE OF\nTHE WORLD"
				}

			}
, 			{
				"box" : 				{
					"bgcolor" : [ 0.011765, 0.396078, 0.752941, 1.0 ],
					"id" : "obj-30",
					"maxclass" : "newobj",
					"numinlets" : 1,
					"numoutlets" : 0,
					"patching_rect" : [ 914.666625999999951, 106.5, 70.0, 22.0 ],
					"text" : "s worldsize"
				}

			}
, 			{
				"box" : 				{
					"format" : 6,
					"id" : "obj-29",
					"maxclass" : "flonum",
					"numinlets" : 1,
					"numoutlets" : 2,
					"outlettype" : [ "", "bang" ],
					"parameter_enable" : 0,
					"patching_rect" : [ 914.666625999999951, 77.0, 50.0, 22.0 ]
				}

			}
, 			{
				"box" : 				{
					"id" : "obj-26",
					"maxclass" : "message",
					"numinlets" : 2,
					"numoutlets" : 1,
					"outlettype" : [ "" ],
					"patching_rect" : [ 914.666625999999951, 35.5, 29.5, 22.0 ],
					"text" : "32."
				}

			}
, 			{
				"box" : 				{
					"format" : 6,
					"id" : "obj-22",
					"maxclass" : "flonum",
					"numinlets" : 1,
					"numoutlets" : 2,
					"outlettype" : [ "", "bang" ],
					"parameter_enable" : 0,
					"patching_rect" : [ 231.0, 423.833344000000011, 50.0, 22.0 ]
				}

			}
, 			{
				"box" : 				{
					"id" : "obj-53",
					"linecount" : 4,
					"maxclass" : "comment",
					"numinlets" : 1,
					"numoutlets" : 0,
					"patching_rect" : [ 830.166625999999951, 147.5, 132.0, 60.0 ],
					"text" : "This is from center to the edge -- the world size is actually 2X this number..."
				}

			}
, 			{
				"box" : 				{
					"id" : "obj-19",
					"linecount" : 2,
					"maxclass" : "comment",
					"numinlets" : 1,
					"numoutlets" : 0,
					"patching_rect" : [ 188.75, 476.833344000000011, 216.0, 33.0 ],
					"text" : "far_clip can be set to be in a good relationship with the size of the cube..."
				}

			}
, 			{
				"box" : 				{
					"id" : "obj-18",
					"maxclass" : "message",
					"numinlets" : 2,
					"numoutlets" : 1,
					"outlettype" : [ "" ],
					"patching_rect" : [ 619.666625999999951, 102.0, 29.5, 22.0 ],
					"text" : "0"
				}

			}
, 			{
				"box" : 				{
					"id" : "obj-14",
					"linecount" : 2,
					"maxclass" : "comment",
					"numinlets" : 1,
					"numoutlets" : 0,
					"patching_rect" : [ 53.0, 338.833344000000011, 136.0, 33.0 ],
					"text" : "Camera reset \n-- If you get lost, hit this!"
				}

			}
, 			{
				"box" : 				{
					"id" : "obj-11",
					"maxclass" : "message",
					"numinlets" : 2,
					"numoutlets" : 1,
					"outlettype" : [ "" ],
					"patching_rect" : [ 45.0, 372.833344000000011, 70.0, 22.0 ],
					"text" : "anim_reset"
				}

			}
, 			{
				"box" : 				{
					"id" : "obj-9",
					"maxclass" : "newobj",
					"numinlets" : 1,
					"numoutlets" : 2,
					"outlettype" : [ "", "" ],
					"patching_rect" : [ 59.5, 422.833344000000011, 147.0, 22.0 ],
					"text" : "jit.anim.drive @ui_listen 1"
				}

			}
, 			{
				"box" : 				{
					"id" : "obj-8",
					"maxclass" : "newobj",
					"numinlets" : 1,
					"numoutlets" : 2,
					"outlettype" : [ "jit_gl_texture", "" ],
					"patching_rect" : [ 28.0, 489.333344000000011, 123.0, 22.0 ],
					"text" : "jit.gl.camera myworld"
				}

			}
, 			{
				"box" : 				{
					"id" : "obj-7",
					"maxclass" : "button",
					"numinlets" : 1,
					"numoutlets" : 1,
					"outlettype" : [ "bang" ],
					"parameter_enable" : 0,
					"patching_rect" : [ 606.666625999999951, 35.5, 24.0, 24.0 ]
				}

			}
, 			{
				"box" : 				{
					"id" : "obj-5",
					"maxclass" : "newobj",
					"numinlets" : 6,
					"numoutlets" : 2,
					"outlettype" : [ "jit_gl_texture", "" ],
					"patching_rect" : [ 606.666625999999951, 65.0, 184.0, 22.0 ],
					"text" : "jit.gl.cubemap @file skybox2.png"
				}

			}
, 			{
				"box" : 				{
					"id" : "obj-4",
					"maxclass" : "newobj",
					"numinlets" : 1,
					"numoutlets" : 2,
					"outlettype" : [ "jit_matrix", "" ],
					"patching_rect" : [ 540.666625999999951, 170.0, 121.0, 22.0 ],
					"text" : "jit.gl.skybox myworld"
				}

			}
, 			{
				"box" : 				{
					"id" : "obj-3",
					"maxclass" : "newobj",
					"numinlets" : 1,
					"numoutlets" : 3,
					"outlettype" : [ "jit_matrix", "bang", "" ],
					"patching_rect" : [ 21.25, 112.0, 99.0, 22.0 ],
					"text" : "jit.world myworld"
				}

			}
, 			{
				"box" : 				{
					"id" : "obj-2",
					"maxclass" : "toggle",
					"numinlets" : 1,
					"numoutlets" : 1,
					"outlettype" : [ "int" ],
					"parameter_enable" : 0,
					"patching_rect" : [ 21.25, 41.5, 55.0, 55.0 ]
				}

			}
, 			{
				"box" : 				{
					"attr" : "infinite",
					"id" : "obj-15",
					"maxclass" : "attrui",
					"numinlets" : 1,
					"numoutlets" : 1,
					"outlettype" : [ "" ],
					"patching_rect" : [ 619.666625999999951, 129.5, 150.0, 22.0 ]
				}

			}
, 			{
				"box" : 				{
					"attr" : "far_clip",
					"id" : "obj-20",
					"maxclass" : "attrui",
					"numinlets" : 1,
					"numoutlets" : 1,
					"outlettype" : [ "" ],
					"patching_rect" : [ 231.0, 453.333344000000011, 150.0, 22.0 ]
				}

			}
, 			{
				"box" : 				{
					"attr" : "enable",
					"id" : "obj-69",
					"maxclass" : "attrui",
					"numinlets" : 1,
					"numoutlets" : 1,
					"outlettype" : [ "" ],
					"patching_rect" : [ 261.0, 90.5, 150.0, 22.0 ]
				}

			}
, 			{
				"box" : 				{
					"attr" : "position",
					"id" : "obj-12",
					"maxclass" : "attrui",
					"numinlets" : 1,
					"numoutlets" : 1,
					"outlettype" : [ "" ],
					"patching_rect" : [ 59.5, 764.66668701171875, 328.0, 22.0 ]
				}

			}
, 			{
				"box" : 				{
					"attr" : "rotatexyz",
					"id" : "obj-28",
					"maxclass" : "attrui",
					"numinlets" : 1,
					"numoutlets" : 1,
					"outlettype" : [ "" ],
					"patching_rect" : [ 53.5, 800.333344000000011, 317.0, 22.0 ]
				}

			}
, 			{
				"box" : 				{
					"attr" : "rotatexyz",
					"id" : "obj-44",
					"maxclass" : "attrui",
					"numinlets" : 1,
					"numoutlets" : 1,
					"outlettype" : [ "" ],
					"patching_rect" : [ 650.6666259765625, 986.166687000000024, 241.0, 22.0 ]
				}

			}
 ],
		"lines" : [ 			{
				"patchline" : 				{
					"destination" : [ "obj-16", 0 ],
					"source" : [ "obj-10", 0 ]
				}

			}
, 			{
				"patchline" : 				{
					"destination" : [ "obj-8", 0 ],
					"disabled" : 1,
					"source" : [ "obj-108", 0 ]
				}

			}
, 			{
				"patchline" : 				{
					"destination" : [ "obj-8", 0 ],
					"order" : 1,
					"source" : [ "obj-11", 0 ]
				}

			}
, 			{
				"patchline" : 				{
					"destination" : [ "obj-9", 0 ],
					"order" : 0,
					"source" : [ "obj-11", 0 ]
				}

			}
, 			{
				"patchline" : 				{
					"destination" : [ "obj-8", 0 ],
					"source" : [ "obj-12", 0 ]
				}

			}
, 			{
				"patchline" : 				{
					"destination" : [ "obj-4", 0 ],
					"source" : [ "obj-15", 0 ]
				}

			}
, 			{
				"patchline" : 				{
					"destination" : [ "obj-57", 0 ],
					"source" : [ "obj-16", 0 ]
				}

			}
, 			{
				"patchline" : 				{
					"destination" : [ "obj-15", 0 ],
					"source" : [ "obj-18", 0 ]
				}

			}
, 			{
				"patchline" : 				{
					"destination" : [ "obj-183", 0 ],
					"order" : 0,
					"source" : [ "obj-180", 0 ]
				}

			}
, 			{
				"patchline" : 				{
					"destination" : [ "obj-57", 0 ],
					"order" : 1,
					"source" : [ "obj-180", 0 ]
				}

			}
, 			{
				"patchline" : 				{
					"destination" : [ "obj-103", 0 ],
					"source" : [ "obj-181", 0 ]
				}

			}
, 			{
				"patchline" : 				{
					"destination" : [ "obj-184", 0 ],
					"source" : [ "obj-183", 0 ]
				}

			}
, 			{
				"patchline" : 				{
					"destination" : [ "obj-181", 0 ],
					"source" : [ "obj-184", 0 ]
				}

			}
, 			{
				"patchline" : 				{
					"destination" : [ "obj-21", 0 ],
					"order" : 0,
					"source" : [ "obj-2", 0 ]
				}

			}
, 			{
				"patchline" : 				{
					"destination" : [ "obj-3", 0 ],
					"order" : 1,
					"source" : [ "obj-2", 0 ]
				}

			}
, 			{
				"patchline" : 				{
					"destination" : [ "obj-8", 0 ],
					"source" : [ "obj-20", 0 ]
				}

			}
, 			{
				"patchline" : 				{
					"destination" : [ "obj-25", 0 ],
					"source" : [ "obj-21", 0 ]
				}

			}
, 			{
				"patchline" : 				{
					"destination" : [ "obj-20", 0 ],
					"source" : [ "obj-22", 0 ]
				}

			}
, 			{
				"patchline" : 				{
					"destination" : [ "obj-6", 0 ],
					"source" : [ "obj-23", 0 ]
				}

			}
, 			{
				"patchline" : 				{
					"destination" : [ "obj-69", 0 ],
					"source" : [ "obj-24", 0 ]
				}

			}
, 			{
				"patchline" : 				{
					"destination" : [ "obj-29", 0 ],
					"source" : [ "obj-26", 0 ]
				}

			}
, 			{
				"patchline" : 				{
					"destination" : [ "obj-8", 0 ],
					"source" : [ "obj-28", 0 ]
				}

			}
, 			{
				"patchline" : 				{
					"destination" : [ "obj-30", 0 ],
					"source" : [ "obj-29", 0 ]
				}

			}
, 			{
				"patchline" : 				{
					"destination" : [ "obj-13", 0 ],
					"source" : [ "obj-3", 1 ]
				}

			}
, 			{
				"patchline" : 				{
					"destination" : [ "obj-18", 0 ],
					"order" : 1,
					"source" : [ "obj-33", 0 ]
				}

			}
, 			{
				"patchline" : 				{
					"destination" : [ "obj-26", 0 ],
					"order" : 0,
					"source" : [ "obj-33", 0 ]
				}

			}
, 			{
				"patchline" : 				{
					"destination" : [ "obj-7", 0 ],
					"order" : 2,
					"source" : [ "obj-33", 0 ]
				}

			}
, 			{
				"patchline" : 				{
					"destination" : [ "obj-36", 0 ],
					"source" : [ "obj-34", 0 ]
				}

			}
, 			{
				"patchline" : 				{
					"destination" : [ "obj-38", 0 ],
					"source" : [ "obj-36", 0 ]
				}

			}
, 			{
				"patchline" : 				{
					"destination" : [ "obj-51", 0 ],
					"order" : 1,
					"source" : [ "obj-37", 0 ]
				}

			}
, 			{
				"patchline" : 				{
					"destination" : [ "obj-65", 0 ],
					"order" : 2,
					"source" : [ "obj-37", 0 ]
				}

			}
, 			{
				"patchline" : 				{
					"destination" : [ "obj-79", 0 ],
					"order" : 0,
					"source" : [ "obj-37", 0 ]
				}

			}
, 			{
				"patchline" : 				{
					"destination" : [ "obj-4", 0 ],
					"source" : [ "obj-38", 0 ]
				}

			}
, 			{
				"patchline" : 				{
					"destination" : [ "obj-8", 0 ],
					"source" : [ "obj-39", 0 ]
				}

			}
, 			{
				"patchline" : 				{
					"destination" : [ "obj-22", 0 ],
					"source" : [ "obj-40", 0 ]
				}

			}
, 			{
				"patchline" : 				{
					"destination" : [ "obj-60", 0 ],
					"source" : [ "obj-44", 0 ]
				}

			}
, 			{
				"patchline" : 				{
					"destination" : [ "obj-183", 0 ],
					"source" : [ "obj-45", 0 ]
				}

			}
, 			{
				"patchline" : 				{
					"destination" : [ "obj-45", 0 ],
					"source" : [ "obj-46", 0 ]
				}

			}
, 			{
				"patchline" : 				{
					"destination" : [ "obj-12", 0 ],
					"source" : [ "obj-48", 0 ]
				}

			}
, 			{
				"patchline" : 				{
					"destination" : [ "obj-3", 0 ],
					"source" : [ "obj-49", 0 ]
				}

			}
, 			{
				"patchline" : 				{
					"destination" : [ "obj-4", 0 ],
					"source" : [ "obj-5", 0 ]
				}

			}
, 			{
				"patchline" : 				{
					"destination" : [ "obj-103", 0 ],
					"source" : [ "obj-50", 0 ]
				}

			}
, 			{
				"patchline" : 				{
					"destination" : [ "obj-103", 0 ],
					"order" : 0,
					"source" : [ "obj-51", 0 ]
				}

			}
, 			{
				"patchline" : 				{
					"destination" : [ "obj-60", 0 ],
					"order" : 1,
					"source" : [ "obj-51", 0 ]
				}

			}
, 			{
				"patchline" : 				{
					"destination" : [ "obj-86", 0 ],
					"source" : [ "obj-52", 0 ]
				}

			}
, 			{
				"patchline" : 				{
					"destination" : [ "obj-103", 0 ],
					"order" : 0,
					"source" : [ "obj-54", 0 ]
				}

			}
, 			{
				"patchline" : 				{
					"destination" : [ "obj-60", 0 ],
					"order" : 1,
					"source" : [ "obj-54", 0 ]
				}

			}
, 			{
				"patchline" : 				{
					"destination" : [ "obj-60", 0 ],
					"source" : [ "obj-55", 0 ]
				}

			}
, 			{
				"patchline" : 				{
					"destination" : [ "obj-59", 0 ],
					"source" : [ "obj-57", 0 ]
				}

			}
, 			{
				"patchline" : 				{
					"destination" : [ "obj-40", 0 ],
					"source" : [ "obj-58", 0 ]
				}

			}
, 			{
				"patchline" : 				{
					"destination" : [ "obj-55", 0 ],
					"source" : [ "obj-59", 0 ]
				}

			}
, 			{
				"patchline" : 				{
					"destination" : [ "obj-60", 0 ],
					"source" : [ "obj-61", 0 ]
				}

			}
, 			{
				"patchline" : 				{
					"destination" : [ "obj-39", 0 ],
					"source" : [ "obj-62", 0 ]
				}

			}
, 			{
				"patchline" : 				{
					"destination" : [ "obj-49", 0 ],
					"source" : [ "obj-63", 0 ]
				}

			}
, 			{
				"patchline" : 				{
					"destination" : [ "obj-28", 0 ],
					"source" : [ "obj-64", 0 ]
				}

			}
, 			{
				"patchline" : 				{
					"destination" : [ "obj-60", 0 ],
					"source" : [ "obj-65", 0 ]
				}

			}
, 			{
				"patchline" : 				{
					"destination" : [ "obj-74", 0 ],
					"source" : [ "obj-66", 0 ]
				}

			}
, 			{
				"patchline" : 				{
					"destination" : [ "obj-6", 0 ],
					"source" : [ "obj-67", 0 ]
				}

			}
, 			{
				"patchline" : 				{
					"destination" : [ "obj-68", 0 ],
					"source" : [ "obj-69", 0 ]
				}

			}
, 			{
				"patchline" : 				{
					"destination" : [ "obj-5", 0 ],
					"source" : [ "obj-7", 0 ]
				}

			}
, 			{
				"patchline" : 				{
					"destination" : [ "obj-48", 0 ],
					"order" : 2,
					"source" : [ "obj-71", 0 ]
				}

			}
, 			{
				"patchline" : 				{
					"destination" : [ "obj-64", 0 ],
					"order" : 1,
					"source" : [ "obj-71", 0 ]
				}

			}
, 			{
				"patchline" : 				{
					"destination" : [ "obj-85", 0 ],
					"order" : 0,
					"source" : [ "obj-71", 0 ]
				}

			}
, 			{
				"patchline" : 				{
					"destination" : [ "obj-75", 0 ],
					"source" : [ "obj-72", 0 ]
				}

			}
, 			{
				"patchline" : 				{
					"destination" : [ "obj-69", 0 ],
					"source" : [ "obj-73", 0 ]
				}

			}
, 			{
				"patchline" : 				{
					"destination" : [ "obj-49", 0 ],
					"source" : [ "obj-74", 0 ]
				}

			}
, 			{
				"patchline" : 				{
					"destination" : [ "obj-56", 0 ],
					"source" : [ "obj-75", 0 ]
				}

			}
, 			{
				"patchline" : 				{
					"destination" : [ "obj-28", 0 ],
					"source" : [ "obj-76", 0 ]
				}

			}
, 			{
				"patchline" : 				{
					"destination" : [ "obj-103", 0 ],
					"source" : [ "obj-79", 0 ]
				}

			}
, 			{
				"patchline" : 				{
					"destination" : [ "obj-108", 0 ],
					"source" : [ "obj-8", 1 ]
				}

			}
, 			{
				"patchline" : 				{
					"destination" : [ "obj-12", 0 ],
					"source" : [ "obj-80", 0 ]
				}

			}
, 			{
				"patchline" : 				{
					"destination" : [ "obj-89", 0 ],
					"source" : [ "obj-82", 0 ]
				}

			}
, 			{
				"patchline" : 				{
					"destination" : [ "obj-50", 0 ],
					"order" : 0,
					"source" : [ "obj-85", 0 ]
				}

			}
, 			{
				"patchline" : 				{
					"destination" : [ "obj-54", 0 ],
					"order" : 1,
					"source" : [ "obj-85", 0 ]
				}

			}
, 			{
				"patchline" : 				{
					"destination" : [ "obj-61", 0 ],
					"order" : 2,
					"source" : [ "obj-85", 0 ]
				}

			}
, 			{
				"patchline" : 				{
					"destination" : [ "obj-76", 0 ],
					"order" : 1,
					"source" : [ "obj-86", 0 ]
				}

			}
, 			{
				"patchline" : 				{
					"destination" : [ "obj-80", 0 ],
					"order" : 2,
					"source" : [ "obj-86", 0 ]
				}

			}
, 			{
				"patchline" : 				{
					"destination" : [ "obj-88", 0 ],
					"order" : 0,
					"source" : [ "obj-86", 0 ]
				}

			}
, 			{
				"patchline" : 				{
					"destination" : [ "obj-103", 0 ],
					"order" : 0,
					"source" : [ "obj-87", 0 ]
				}

			}
, 			{
				"patchline" : 				{
					"destination" : [ "obj-60", 0 ],
					"order" : 1,
					"source" : [ "obj-87", 0 ]
				}

			}
, 			{
				"patchline" : 				{
					"destination" : [ "obj-51", 0 ],
					"order" : 1,
					"source" : [ "obj-88", 0 ]
				}

			}
, 			{
				"patchline" : 				{
					"destination" : [ "obj-65", 0 ],
					"order" : 2,
					"source" : [ "obj-88", 0 ]
				}

			}
, 			{
				"patchline" : 				{
					"destination" : [ "obj-79", 0 ],
					"order" : 0,
					"source" : [ "obj-88", 0 ]
				}

			}
, 			{
				"patchline" : 				{
					"destination" : [ "obj-97", 0 ],
					"midpoints" : [ 1265.6666259765625, 745.0, 1205.6666259765625, 745.0 ],
					"source" : [ "obj-89", 1 ]
				}

			}
, 			{
				"patchline" : 				{
					"destination" : [ "obj-8", 0 ],
					"source" : [ "obj-9", 0 ]
				}

			}
, 			{
				"patchline" : 				{
					"destination" : [ "obj-87", 0 ],
					"source" : [ "obj-97", 0 ]
				}

			}
 ],
		"dependency_cache" : [ 			{
				"name" : "boid.maxpat",
				"bootpath" : "~/Documents/DATT1020/Final Project/scoring_stuff/patchers",
				"patcherrelativepath" : ".",
				"type" : "JSON",
				"implicit" : 1
			}
, 			{
				"name" : "collisionParser.maxpat",
				"bootpath" : "~/Documents/DATT1020/Final Project/scoring_stuff/patchers",
				"patcherrelativepath" : ".",
				"type" : "JSON",
				"implicit" : 1
			}
, 			{
				"name" : "madeItSpace.maxpat",
				"bootpath" : "~/Documents/DATT1020/Final Project/scoring_stuff/patchers",
				"patcherrelativepath" : ".",
				"type" : "JSON",
				"implicit" : 1
			}
 ],
		"autosave" : 0,
		"styles" : [ 			{
				"name" : "newobjBlue-1",
				"default" : 				{
					"accentcolor" : [ 0.317647, 0.654902, 0.976471, 1.0 ]
				}
,
				"parentstyle" : "",
				"multi" : 0
			}
, 			{
				"name" : "newobjBlue-2",
				"default" : 				{
					"accentcolor" : [ 0.317647, 0.654902, 0.976471, 1.0 ]
				}
,
				"parentstyle" : "",
				"multi" : 0
			}
, 			{
				"name" : "newobjGreen-1",
				"default" : 				{
					"accentcolor" : [ 0.0, 0.533333, 0.168627, 1.0 ]
				}
,
				"parentstyle" : "",
				"multi" : 0
			}
, 			{
				"name" : "newobjYellow-1",
				"default" : 				{
					"fontsize" : [ 12.059008 ],
					"accentcolor" : [ 0.82517, 0.78181, 0.059545, 1.0 ]
				}
,
				"parentstyle" : "",
				"multi" : 0
			}
, 			{
				"name" : "newobjYellow-2",
				"default" : 				{
					"fontsize" : [ 12.059008 ],
					"accentcolor" : [ 0.82517, 0.78181, 0.059545, 1.0 ]
				}
,
				"parentstyle" : "",
				"multi" : 0
			}
, 			{
				"name" : "numberG-1",
				"default" : 				{
					"accentcolor" : [ 0.0, 0.533333, 0.168627, 1.0 ]
				}
,
				"parentstyle" : "",
				"multi" : 0
			}
, 			{
				"name" : "numberGold-1",
				"default" : 				{
					"accentcolor" : [ 0.764706, 0.592157, 0.101961, 1.0 ]
				}
,
				"parentstyle" : "",
				"multi" : 0
			}
 ]
	}

}
